<svg xmlns="http://www.w3.org/2000/svg" viewBox="0 0 32 32">
  <rect width="32" height="32" fill="#f5e6c8"/>
  <rect x="2" y="10" width="8" height="18" fill="#2c1810"/>
  <rect x="2"  y="7"  width="2" height="4" fill="#2c1810"/>
  <rect x="6"  y="7"  width="2" height="4" fill="#2c1810"/>
  <rect x="22" y="10" width="8" height="18" fill="#2c1810"/>
  <rect x="22" y="7"  width="2" height="4" fill="#2c1810"/>
  <rect x="26" y="7"  width="2" height="4" fill="#2c1810"/>
  <rect x="11" y="5"  width="10" height="23" fill="#2c1810"/>
  <rect x="11" y="2"  width="2" height="4" fill="#2c1810"/>
  <rect x="15" y="2"  width="2" height="4" fill="#2c1810"/>
  <rect x="19" y="2"  width="2" height="4" fill="#2c1810"/>
  <rect x="2"  y="20" width="28" height="8" fill="#2c1810"/>
  <rect x="13" y="22" width="6" height="6" fill="#f5e6c8"/>
  <rect x="4"  y="13" width="2" height="4" fill="#c9a227"/>
  <rect x="26" y="13" width="2" height="4" fill="#c9a227"/>
  <rect x="15" y="8"  width="2" height="5" fill="#c9a227"/>
  <rect x="0" y="0" width="32" height="1" fill="#c9a227"/>
  <rect x="0" y="31" width="32" height="1" fill="#c9a227"/>
  <rect x="0" y="0" width="1" height="32" fill="#c9a227"/>
  <rect x="31" y="0" width="1" height="32" fill="#c9a227"/>
</svg>
